# xmcd
#
# Track frame offsets:
#	150
#	13979
#	28041
#	40862
#	52787
#	66551
#	78492
#	93993
#	107697
#	120485
#	133767
#	153258
#	167860
#	180460
#	195953
#	209490
#	222021
#	233961
#	246931
#	258975
#	270370
#	285486
#
# Disc length: 4013 seconds
#
# Revision: 1
# Processed by: cddbd v1.5.2PL0 Copyright (c) Steve Scherf et al.
# Submitted via: audiograbber 1.83.01
#
DISCID=300fab16
DTITLE=Various Artist - The Copulatin' Blues
DYEAR=1900
DGENRE=Blues
TTITLE0=Sidney Bechet and His New Orleans Footwarmers - Preachin' Blues
TTITLE1=Lil Johnson and Black Bob - Let's Get Drunk and Truck
TTITLE2=Bessie Smith - I Need a Little Sugar in my Bowl
TTITLE3=Oscar's Chicago Swingers - New Rubbin' On That Darn Old Thing
TTITLE4=Lil Johnson - Stavin' Chain (That Rockin' Swing)
TTITLE5=Merline Johnson, The Yas-Yas Girl - Don't You Make Me High
TTITLE6=Tampa Red's Hokum Jug Band - My Daddy Rocks Me (with One Steady Roll)
TTITLE7=Coot Grant and Kid Wilson - Keep Your Hands Off My Mojo
TTITLE8=Lovin' Sam Theard - State Street Blues
TTITLE9=Georgia White - I'll Keep Sittin' On It (If I Can't Sell It)
TTITLE10=Jelly Roll Morton - Winin' Boy Blues
TTITLE11=Lil Johnson with Black Bob - Press My Button (Ring My Bell)
TTITLE12=Palooka Washboard Band - Save Me Some
TTITLE13=Lucille Bogan with Walter Roland - Shave 'Em Dry
TTITLE14=Bo Carter - Please Warm My Weiner
TTITLE15=Georgia White - Hot Nuts (Get 'em from the Peanut Man)
TTITLE16=Lil Johnson - You Stole My Cherry
TTITLE17=Ethel Waters - Bring Your Greenbacks
TTITLE18=Lucille Bogan - Barbecue Bees
TTITLE19=Irene Scruggs - Must Get Mine in Front
TTITLE20=Billie Pierce - I'm in the Racket
TTITLE21=Bessie Smith featuring Benny Goodman and Bobby Johnson - Do Your Duty
EXTD=(C) 2009 Grammercy Records\nCD-287\nUPC 734796-028725
EXTT0=
EXTT1=
EXTT2=
EXTT3=
EXTT4=
EXTT5=
EXTT6=
EXTT7=
EXTT8=
EXTT9=
EXTT10=
EXTT11=
EXTT12=
EXTT13=
EXTT14=
EXTT15=
EXTT16=
EXTT17=
EXTT18=
EXTT19=
EXTT20=
EXTT21=
PLAYORDER=
